HIERARCHY
ROOT Hips
{
	OFFSET -0.001795 -0.223333 0.028219
	CHANNELS 6 Xposition Yposition Zposition Zrotation Yrotation Xrotation 
	JOINT LeftUpLeg
	{
		OFFSET 0.069520 -0.091406 -0.006815
		CHANNELS 3 Zrotation Yrotation Xrotation
		JOINT LeftLeg
		{
			OFFSET 0.034277 -0.375199 -0.004496
			CHANNELS 3 Zrotation Yrotation Xrotation
			JOINT LeftFoot
			{
				OFFSET -0.013596 -0.397961 -0.043693
				CHANNELS 3 Zrotation Yrotation Xrotation
				JOINT LeftToe
				{
					OFFSET 0.026358 -0.055791 0.119288
					CHANNELS 3 Zrotation Yrotation Xrotation
					End Site
					{
						OFFSET 0.000000 0.000000 0.000000
					}
				}
			}
		}
	}
	JOINT RightUpLeg
	{
		OFFSET -0.067670 -0.090522 -0.004320
		CHANNELS 3 Zrotation Yrotation Xrotation
		JOINT RightLeg
		{
			OFFSET -0.038290 -0.382569 -0.008850
			CHANNELS 3 Zrotation Yrotation Xrotation
			JOINT RightFoot
			{
				OFFSET 0.015774 -0.398415 -0.042312
				CHANNELS 3 Zrotation Yrotation Xrotation
				JOINT RightToe
				{
					OFFSET -0.025372 -0.048144 0.123348
					CHANNELS 3 Zrotation Yrotation Xrotation
					End Site
					{
						OFFSET 0.000000 0.000000 0.000000
					}
				}
			}
		}
	}
	JOINT Spine
	{
		OFFSET -0.002533 0.108963 -0.026696
		CHANNELS 3 Zrotation Yrotation Xrotation
		JOINT Spine1
		{
			OFFSET 0.005487 0.135180 0.001092
			CHANNELS 3 Zrotation Yrotation Xrotation
			JOINT Spine2
			{
				OFFSET 0.001457 0.052922 0.025425
				CHANNELS 3 Zrotation Yrotation Xrotation
				JOINT Neck
				{
					OFFSET -0.002778 0.213870 -0.042857
					CHANNELS 3 Zrotation Yrotation Xrotation
					JOINT Head
					{
						OFFSET 0.005152 0.064970 0.051349
						CHANNELS 3 Zrotation Yrotation Xrotation
						End Site
						{
							OFFSET 0.000000 0.000000 0.000000
						}
					}
				}
				JOINT LeftShoulder
				{
					OFFSET 0.078845 0.121749 -0.034090
					CHANNELS 3 Zrotation Yrotation Xrotation
					JOINT LeftArm
					{
						OFFSET 0.090977 0.030469 -0.008868
						CHANNELS 3 Zrotation Yrotation Xrotation
						JOINT LeftForeArm
						{
							OFFSET 0.259612 -0.012772 -0.027456
							CHANNELS 3 Zrotation Yrotation Xrotation
							JOINT LeftHand
							{
								OFFSET 0.249234 0.008986 -0.001171
								CHANNELS 3 Zrotation Yrotation Xrotation
								End Site
								{
									OFFSET 0.000000 0.000000 0.000000
								}
							}
						}
					}
				}
				JOINT RightShoulder
				{
					OFFSET -0.081759 0.118833 -0.038615
					CHANNELS 3 Zrotation Yrotation Xrotation
					JOINT RightArm
					{
						OFFSET -0.096012 0.032551 -0.009143
						CHANNELS 3 Zrotation Yrotation Xrotation
						JOINT RightForeArm
						{
							OFFSET -0.253742 -0.013329 -0.021401
							CHANNELS 3 Zrotation Yrotation Xrotation
							JOINT RightHand
							{
								OFFSET -0.255298 0.007772 -0.005559
								CHANNELS 3 Zrotation Yrotation Xrotation
								End Site
								{
									OFFSET 0.000000 0.000000 0.000000
								}
							}
						}
					}
				}
			}
		}
	}
}
MOTION
Frames: 13
Frame Time: 0.050000
0.086686 0.902839 0.169823 -2.569918 -2.973657 -0.789595 8.315618 -0.329140 -25.057218 -17.113774 5.701948 27.623464 18.617600 33.073907 10.164006 0.000000 0.000000 0.000000 -16.919301 0.553530 0.361609 6.589629 -0.966134 39.603477 -6.736128 -17.677402 12.503950 0.000000 0.000000 0.000000 6.134702 -0.897161 9.290444 -4.073562 1.553430 -23.123451 1.256447 7.125030 26.880247 11.991260 -5.940567 -19.572301 0.000000 0.000000 0.000000 -0.846411 -15.820930 5.306930 -31.179721 -34.068042 2.507809 122.630048 -42.774999 -67.271797 0.000000 0.000000 0.000000 4.164225 7.914961 3.209219 45.769079 42.489067 10.440859 -149.566143 55.176144 -108.918471 0.000000 0.000000 0.000000 
0.066111 0.897981 0.150585 -2.486574 -8.762844 1.538070 11.788181 1.119870 -28.116116 -18.292316 7.078141 27.591101 19.347399 32.942339 13.610614 0.000000 0.000000 0.000000 -18.681830 1.525034 5.336340 4.939873 0.116438 27.446025 -3.830665 -13.133196 13.559047 0.000000 0.000000 0.000000 5.651041 -0.810285 8.808303 -5.230135 1.722302 -23.227357 2.259875 9.285231 27.611868 9.742327 -4.517799 -20.048216 0.000000 0.000000 0.000000 -1.281493 -15.233476 5.246403 -29.655290 -33.839115 2.199002 114.908635 -39.415697 -54.330781 0.000000 0.000000 0.000000 3.446605 10.576609 4.040211 43.983100 47.777465 12.064458 -145.508794 56.449320 -106.149751 0.000000 0.000000 0.000000 
0.042564 0.894653 0.125555 -1.766595 -12.910290 2.948203 13.409332 2.056341 -28.342366 -19.393657 7.717307 25.312726 20.196109 33.423890 15.124884 0.000000 0.000000 0.000000 -18.341173 2.112511 7.932258 4.508367 0.036592 17.348786 -4.428707 -13.528914 9.874933 0.000000 0.000000 0.000000 5.163390 -0.785702 9.205509 -5.916318 1.809770 -23.750057 1.431661 10.744771 27.395905 10.269098 -4.885059 -20.679776 0.000000 0.000000 0.000000 -1.294331 -16.667964 5.824840 -28.046912 -33.240970 1.891233 105.304631 -34.977893 -40.906241 0.000000 0.000000 0.000000 4.823212 10.936615 4.220894 43.700659 51.203436 13.316153 -143.917968 59.204328 -108.253948 0.000000 0.000000 0.000000 
0.017786 0.886667 0.096013 -1.917110 -17.863820 3.473993 16.549888 3.602891 -27.624709 -20.187985 8.452319 23.876448 22.886134 36.303713 16.078610 0.000000 0.000000 0.000000 -18.436603 2.567592 7.809227 4.761006 -0.051093 12.767934 -4.116554 -12.385978 7.519257 0.000000 0.000000 0.000000 5.215989 -0.815862 10.293297 -6.555928 1.883850 -23.601127 0.720390 12.405104 27.756849 8.589299 -4.046595 -20.230293 0.000000 0.000000 0.000000 -1.832907 -16.893805 6.063636 -24.928480 -33.447901 1.437270 98.717350 -30.655114 -31.603425 0.000000 0.000000 0.000000 4.998355 11.089632 4.152060 43.514239 55.314970 14.857490 -138.944643 60.422285 -104.043149 0.000000 0.000000 0.000000 
-0.004403 0.879222 0.065834 -1.556241 -22.156150 2.768866 19.556919 4.899443 -25.500614 -20.991113 9.068254 22.530295 22.630376 35.685447 16.132431 0.000000 0.000000 0.000000 -18.761163 2.671429 5.087222 5.310684 0.058323 14.489816 -4.320529 -10.368058 1.465288 0.000000 0.000000 0.000000 4.687819 -0.755462 11.618553 -6.108447 1.704799 -23.662120 -0.396727 12.279963 28.399390 7.361899 -3.497577 -21.540136 0.000000 0.000000 0.000000 -2.363962 -15.433578 5.783580 -25.951963 -33.632281 1.638340 97.031603 -30.372612 -28.828180 0.000000 0.000000 0.000000 3.358182 11.182209 3.880011 46.001278 60.364201 17.951476 -135.139118 62.879929 -103.389105 0.000000 0.000000 0.000000 
-0.022544 0.871963 0.039464 -1.094897 -25.142999 1.565557 21.448114 5.769723 -23.970102 -20.258080 9.506000 23.767516 19.612555 32.545317 12.729246 0.000000 0.000000 0.000000 -18.937814 2.741672 3.581014 6.702530 0.106689 17.806035 -5.972740 -11.322364 -3.472271 0.000000 0.000000 0.000000 4.464322 -0.711861 13.608375 -7.114158 1.915665 -23.206586 -0.997424 10.649655 27.967303 4.991329 -2.575773 -20.761847 0.000000 0.000000 0.000000 -3.989318 -15.235174 6.192702 -24.527154 -32.889326 1.321616 97.729867 -27.162110 -24.462554 0.000000 0.000000 0.000000 4.663488 11.634588 3.827606 47.269478 62.985007 19.254702 -131.747514 66.077742 -104.478363 0.000000 0.000000 0.000000 
-0.036160 0.870477 0.019806 -0.860332 -25.764391 0.514354 22.542188 6.129656 -23.160752 -19.957423 9.737424 24.820553 18.941095 31.271100 13.602645 0.000000 0.000000 0.000000 -18.479014 2.430294 1.397300 8.847264 -0.053957 21.230810 -8.004714 -14.586209 -6.808993 0.000000 0.000000 0.000000 5.058885 -0.765922 14.877685 -7.974725 2.151544 -23.511645 -1.581424 9.133660 28.242288 4.740358 -2.701449 -21.041889 0.000000 0.000000 0.000000 -3.919219 -15.656867 6.472055 -24.181013 -32.919477 1.313267 99.538133 -23.272324 -20.242844 0.000000 0.000000 0.000000 6.099012 11.661815 3.651694 51.100235 61.083860 20.054420 -138.286617 67.015791 -114.415015 0.000000 0.000000 0.000000 
-0.044855 0.870122 0.008181 -0.082404 -27.579135 -0.214928 23.152583 6.236020 -21.333125 -19.811647 9.690010 23.912111 17.802240 29.398984 14.235492 0.000000 0.000000 0.000000 -18.372231 2.360802 -0.229735 9.608061 0.050565 23.369406 -8.913751 -15.578385 -9.085507 0.000000 0.000000 0.000000 5.262141 -0.733681 14.462266 -8.413702 2.241913 -23.339804 -2.253876 8.843165 27.815467 3.379260 -2.203235 -18.582895 0.000000 0.000000 0.000000 -3.774485 -14.860697 6.227772 -25.719641 -31.725535 1.372827 101.879647 -22.866766 -19.857266 0.000000 0.000000 0.000000 7.404391 11.772996 3.476164 56.409310 57.643233 20.778002 -150.326210 68.435664 -132.264485 0.000000 0.000000 0.000000 
-0.049331 0.871260 0.002881 0.220618 -28.352858 -1.028858 22.815493 6.050066 -20.403846 -18.773901 9.437199 24.259353 16.921237 28.076717 14.317096 0.000000 0.000000 0.000000 -18.433729 2.307114 -1.202257 10.345026 0.074237 25.061301 -9.297049 -16.514467 -9.153449 0.000000 0.000000 0.000000 5.661831 -0.743374 14.260959 -8.287114 2.196134 -23.434567 -2.396193 8.143744 27.047136 2.811833 -2.031833 -17.905848 0.000000 0.000000 0.000000 -3.589647 -14.622340 6.159080 -26.899145 -29.475863 1.171880 102.728664 -23.487271 -20.410552 0.000000 0.000000 0.000000 7.477340 11.739513 3.291754 60.104221 54.470928 20.543849 -158.276193 66.954698 -143.020937 0.000000 0.000000 0.000000 
-0.051929 0.870586 0.001352 1.752927 -29.616766 -2.665907 22.115770 5.674497 -18.764759 -18.425197 9.335715 23.609016 15.837925 26.361530 14.691364 0.000000 0.000000 0.000000 -20.229531 2.595050 -2.016163 11.736865 -0.026899 26.914592 -9.753873 -17.221327 -10.119940 0.000000 0.000000 0.000000 6.015801 -0.710600 13.496809 -9.220632 2.458193 -22.681185 -2.251820 7.504532 26.577912 1.320671 -1.261291 -16.532303 0.000000 0.000000 0.000000 -4.058642 -13.386299 5.865844 -29.511218 -27.252792 1.004579 103.808561 -24.240478 -20.720901 0.000000 0.000000 0.000000 8.048553 11.539245 2.952698 61.697507 51.017799 18.944926 -168.071259 66.662631 -158.583273 0.000000 0.000000 0.000000 
-0.053064 0.870949 0.001455 2.027954 -30.618448 -2.777317 22.049750 5.629550 -17.987424 -17.665900 8.888529 22.785101 15.095050 25.075987 15.133636 0.000000 0.000000 0.000000 -21.072881 2.721375 -2.973951 12.735264 -0.130700 27.597424 -9.455951 -17.305880 -8.054180 0.000000 0.000000 0.000000 6.717940 -0.725809 12.404749 -9.222076 2.453295 -22.151267 -2.261006 7.999583 26.455138 0.481947 -0.673799 -17.077638 0.000000 0.000000 0.000000 -3.711112 -12.694943 5.530727 -30.781884 -24.927183 0.599446 103.455914 -25.035336 -21.249339 0.000000 0.000000 0.000000 8.645066 11.277406 2.734336 63.146813 49.035296 18.366424 -173.956298 66.038707 -167.648544 0.000000 0.000000 0.000000 
-0.053676 0.870678 0.001675 2.761059 -31.424543 -3.616273 21.301228 5.180882 -16.465058 -17.092552 8.083700 20.366390 14.633717 24.328644 15.185327 0.000000 0.000000 0.000000 -21.285809 2.775794 -3.197149 12.863429 -0.024569 28.399648 -9.919442 -17.926214 -8.985273 0.000000 0.000000 0.000000 6.903918 -0.697182 11.948190 -9.558526 2.551195 -21.660460 -2.276814 8.243240 26.242913 -0.090911 -0.309455 -16.284688 0.000000 0.000000 0.000000 -4.220990 -11.370967 5.125664 -32.056005 -23.482923 0.295098 100.773071 -25.155911 -19.999703 0.000000 0.000000 0.000000 9.886366 11.007971 2.436921 64.766233 47.991014 18.481128 178.801126 66.964731 -179.227565 0.000000 0.000000 0.000000 
-0.053523 0.870522 0.001788 2.778455 -32.101788 -4.103966 20.958637 4.879706 -15.027840 -16.639298 7.674668 19.200015 14.139167 24.001454 13.476797 0.000000 0.000000 0.000000 -20.960373 2.760529 -3.056924 12.952465 0.089809 29.213320 -10.052664 -18.476557 -8.071810 0.000000 0.000000 0.000000 6.986474 -0.684935 12.006072 -9.786903 2.596256 -22.113488 -2.246006 7.911279 26.300582 -0.427461 -0.180800 -15.869201 0.000000 0.000000 0.000000 -3.780771 -10.057330 4.544117 -33.633491 -21.965723 0.057345 96.906549 -24.138546 -16.938932 0.000000 0.000000 0.000000 10.345475 10.517542 2.056522 65.406871 47.398796 18.241645 173.305687 68.448869 172.017438 0.000000 0.000000 0.000000 
